<?xml version="1.0" encoding="UTF-8" standalone="no"?>
<!-- Created with Inkscape (http://www.inkscape.org/) -->

<svg
   width="28.441086mm"
   height="13.666036mm"
   viewBox="0 0 28.441086 13.666036"
   version="1.1"
   id="svg1"
   xml:space="preserve"
   xmlns="http://www.w3.org/2000/svg"
   xmlns:svg="http://www.w3.org/2000/svg"><defs
     id="defs1" /><g
     id="layer1"
     transform="translate(-10.465094,-25.997386)"><path
       id="rect16"
       style="fill:#595959;fill-opacity:1;stroke-width:0.257825"
       d="m 14.593531,25.997386 h 20.184213 c 2.287154,0 4.128437,1.841283 4.128437,4.128437 v 5.409163 c 0,2.287154 -1.841283,4.128437 -4.128437,4.128437 H 14.593531 c -2.287155,0 -4.128437,-1.841283 -4.128437,-4.128437 v -5.409163 c 0,-2.287154 1.841282,-4.128437 4.128437,-4.128437 z M 12.419125,32.41495 H 36.95215 c 1.082533,0 1.954031,0.871498 1.954031,1.954032 v 3.340409 c 0,1.082534 -0.871498,1.954032 -1.954031,1.954032 H 12.419125 c -1.082533,0 -1.954031,-0.871498 -1.954031,-1.954032 v -3.340409 c 0,-1.082534 0.871498,-1.954032 1.954031,-1.954032 z" /><rect
       style="fill:#82cff8;fill-opacity:1;stroke-width:0.245808"
       id="rect23"
       width="22.781172"
       height="1.9669406"
       x="13.295054"
       y="35.254234"
       rx="0.98347032"
       ry="0.98347032" /></g></svg>
